<?xml version="1.0" standalone="no"?>
<!DOCTYPE svg PUBLIC "-//W3C//DTD SVG 20010904//EN"
 "http://www.w3.org/TR/2001/REC-SVG-20010904/DTD/svg10.dtd">
<svg version="1.0" xmlns="http://www.w3.org/2000/svg"
 width="300.000000pt" height="300.000000pt" viewBox="0 0 300.000000 300.000000"
 preserveAspectRatio="xMidYMid meet">
<metadata>
Created by potrace 1.14, written by Peter Selinger 2001-2017
</metadata>
<g transform="translate(0.000000,300.000000) scale(0.100000,-0.100000)"
fill="#000000" stroke="none">
<path d="M1350 2993 c-303 -44 -509 -122 -720 -271 -282 -201 -494 -507 -581
-843 -52 -203 -61 -466 -21 -665 123 -612 595 -1077 1207 -1190 106 -19 362
-26 462 -12 460 67 863 332 1091 721 140 239 202 459 207 737 4 236 -29 413
-112 610 -169 395 -491 697 -895 839 -49 17 -88 28 -88 26 0 -2 -12 0 -27 6
-63 24 -197 41 -343 43 -85 2 -166 1 -180 -1z m375 -258 c401 -75 745 -341
914 -707 37 -80 75 -189 86 -247 3 -14 8 -39 11 -56 63 -335 -24 -701 -232
-978 -418 -555 -1204 -667 -1756 -252 -73 56 -188 167 -242 234 -114 145 -209
360 -243 549 -17 99 -23 286 -12 364 4 29 11 73 14 98 11 75 73 249 122 342
79 149 223 321 351 418 65 50 203 129 279 160 89 37 240 77 333 88 101 12 276
6 375 -13z"/>
</g>
</svg>
